<svg width="19" height="20" viewBox="0 0 19 20" fill="none" xmlns="http://www.w3.org/2000/svg">
<path d="M5.99341 1V3M1.99341 7V17C1.99341 17.5304 2.20412 18.0391 2.57919 18.4142C2.95427 18.7893 3.46298 19 3.99341 19H15.9934C16.5238 19 17.0325 18.7893 17.4076 18.4142C17.7827 18.0391 17.9934 17.5304 17.9934 17V7H1.99341ZM1.99341 7V5C1.99341 4.46957 2.20412 3.96086 2.57919 3.58579C2.95427 3.21071 3.46298 3 3.99341 3H5.99341L1.99341 7ZM1.99341 7H17.9934H1.99341ZM17.9934 7V5C17.9934 4.46957 17.7827 3.96086 17.4076 3.58579C17.0325 3.21071 16.5238 3 15.9934 3H13.9934L17.9934 7ZM13.9934 3V1V3ZM13.9934 3H5.99341H13.9934Z" stroke="#BA8924" stroke-width="2" stroke-linecap="round" stroke-linejoin="round"/>
</svg>
