<svg width="298" height="148" viewBox="0 0 298 148" fill="none" xmlns="http://www.w3.org/2000/svg">
<path d="M226.808 8.92377C228.785 9.32592 230.686 9.50084 231.001 12.3339C231.162 13.7768 233.104 13.9244 234.538 13.9634C237.11 14.0337 237.783 14.4504 237.63 16.7487C237.506 18.6049 238.105 19.1541 239.836 19.3069C242.116 19.508 244.252 20.1594 246.651 19.2348C248.811 18.4032 250.046 19.501 251.071 22.1074C251.288 22.6595 251.599 23.3958 252.243 22.9977C255.177 21.1834 258.68 22.5967 261.824 20.9957C263.912 19.9322 266.887 20.414 268.982 22.4317C269.994 23.4074 271.196 23.8764 272.453 23.0186C273.786 22.1091 274.89 22.946 275.576 23.6532C277.755 25.8993 280.216 25.2316 282.716 24.7539C283.05 24.69 283.374 24.5691 283.703 24.4749C285.061 24.085 283.788 27.2086 285.311 25.8772C286.117 25.1717 286.681 25.0241 287.593 24.9131C291.749 24.4069 294.813 26.7693 298 28.8631L296.476 32.4516C296.365 32.4235 296.255 32.3977 296.143 32.3743C295.239 32.1854 294.414 30.6001 294.142 31.0336C293.578 31.9286 292.445 32.6939 292.592 33.9457C292.781 35.5519 291.988 35.9314 290.569 35.9994C289.305 36.0599 288.014 36.2842 287.035 37.2855C286.238 38.102 285.293 38.1182 284.162 38.0746C281.241 37.9619 279.669 39.352 279.304 42.3198C278.928 45.3638 276.092 46.4564 274.592 48.6002C274.108 49.2929 273.673 48.395 273.413 47.933C272.222 45.8189 272.96 43.8534 274.021 41.9985C274.535 41.1012 275.361 40.3876 276.012 39.5641C276.408 39.0649 277.437 38.7441 276.968 37.9677C276.553 37.2808 275.601 37.0943 274.775 37.1158C273.744 37.1431 273.045 37.8521 272.57 38.6569C271.741 40.0598 270.765 39.8535 269.329 39.5955C265.587 38.9231 261.712 38.5297 259.105 42.2943C258.415 43.2909 256.279 43.4362 256.93 45.0547C257.543 46.5778 259.431 45.5701 260.709 45.9647C261.654 46.2559 262.927 45.9293 262.969 47.2037C263.015 48.5775 264.41 50.1152 262.853 51.339C262.37 51.7191 261.934 51.9504 261.869 52.5972C261.836 52.9232 261.847 53.4166 261.449 53.4154C261.073 53.4143 261.114 52.9273 261.075 52.6141C261.047 52.3828 261.066 52.1462 261.04 51.9144C260.965 51.2641 261.251 50.5586 260.747 49.9734C260.572 50.6318 260.511 51.3524 260.2 51.9388C258.717 54.7381 257.137 57.3823 253.671 58.2249C250.496 58.9967 250.181 59.6481 250.944 62.8618C251.223 64.0334 251.229 65.0312 249.975 65.4455C248.764 65.8459 248.386 64.7179 247.968 63.9369C247.646 63.3348 247.465 62.627 247.36 61.9453C247.206 60.9469 246.653 60.8569 245.877 61.1428C245.272 61.3654 244.631 62.1197 244.08 61.2259C243.699 60.6093 243.457 60.2014 242.908 60.9748C242.579 61.438 242.061 62.0087 242.126 62.4596C242.265 63.4406 242.991 62.6468 243.463 62.6927C244.813 62.8252 246.084 62.9861 244.311 64.5802C243.507 65.3031 243.747 66.2492 243.932 67.193C244.874 72.0129 242.812 75.5735 238.248 77.2077C237.107 77.6162 235.683 77.5465 235.19 79.158C234.877 80.1848 234.408 80.0976 233.953 79.0696C233.402 77.8266 232.577 78.6222 231.959 79.0557C231.12 79.6449 231.106 80.383 231.885 81.0902C232.23 81.404 232.6 81.6934 232.923 82.0288C235.127 84.3155 234.351 87.517 231.353 88.7112C230.526 89.0407 230.399 88.4747 230.068 88.004C229.167 86.7238 227.613 85.2128 226.457 86.2612C224.965 87.614 226.543 89.2209 227.73 90.3593C228.603 91.1967 229.631 92.205 229.41 93.2929C228.902 95.7813 231.102 97.2946 231.241 99.4988C231.304 100.493 232.259 100.641 233.054 100.862C235.386 101.51 237.557 102.849 240.133 102.446C240.576 102.377 241.228 102.556 241.26 103.033C241.306 103.711 240.604 103.516 240.194 103.553C237.255 103.817 234.246 103.321 231.602 102.474C229.564 101.822 227.84 99.4721 226.516 97.5113C225.416 95.8784 224.21 94.3197 222.906 92.8454C222.524 92.4148 221.811 92.1428 222.272 91.4914C222.792 90.7568 223.551 91.0456 224.09 91.5216C224.873 92.2126 225.556 93.0169 226.291 93.7636C226.534 94.0112 226.883 94.282 227.177 94.0327C227.523 93.741 227.153 93.4236 226.972 93.1703C225.059 90.4878 224.342 87.5118 224.605 84.2324C224.703 83.0097 224.503 81.7859 222.693 82.1775C221.135 82.5146 221.177 81.0251 220.636 80.258C218.366 77.0386 217.523 76.956 214.607 79.5659C213.937 80.1651 213.203 80.6922 212.471 81.2129C209.952 83.0045 209.288 85.6585 210.582 88.6049C210.847 89.2087 211.496 89.877 210.779 90.4883C210.118 91.052 209.561 90.339 208.931 90.1234C206.025 89.1279 204.931 86.7011 204.531 84.09C203.936 80.2005 201.014 77.9521 198.926 75.1028C198.391 74.3712 197.591 74.2166 196.751 74.202C195.702 74.1835 194.644 74.0905 193.606 74.1922C192.959 74.2555 192.344 74.1614 191.738 74.0283C190.703 73.8016 190.09 75.1336 190.934 75.7746C191.336 76.0803 191.773 76.3586 192.145 76.6899C192.815 77.2861 192.125 77.6476 191.93 78.1532C190.699 81.3523 187.627 82.1758 184.989 83.3909C183.338 84.1505 181.776 85.2988 179.846 85.4127C179.487 85.4336 179.131 85.6225 179.131 86.0328C179.131 86.5866 179.568 86.8539 180.033 86.8958C181.215 87.0027 182.256 86.3565 183.387 86.1757C184.962 85.9247 185.721 86.9951 185.019 88.43C183.634 91.2618 181.853 93.874 179.302 95.865C175.395 98.9142 175.023 100.16 176.488 104.727C177.636 108.306 177.501 108.846 174.387 111.213C173.199 112.117 172.181 112.945 172.772 114.655C173.005 115.332 173.063 116.256 172.504 116.643C170.27 118.189 169.539 120.761 168.136 122.853C165.881 126.216 162.425 126.055 159.101 126.308C158.059 126.388 157.273 125.352 157.167 124.543C156.787 121.63 155.346 118.978 154.347 116.409C152.809 112.455 151.656 109.047 153.196 104.878C153.638 103.682 153.056 101.705 152.27 100.543C150.954 98.5958 150.328 96.6338 150.389 94.343C150.408 93.6131 150.012 92.7042 149.278 92.8111C147.277 93.1029 145.653 91.2549 143.976 91.6332C142.095 92.058 140.035 91.6866 138.306 92.7646C137.144 93.4887 136.117 93.1976 135.059 92.5008C132.404 90.7516 130.899 87.8901 128.582 85.8143C128.339 85.5964 128.192 85.1686 128.25 84.8473C129.047 80.426 127.523 75.3416 131.686 71.8729C133.709 70.1864 134.508 67.6021 136.455 65.8738C137.273 65.148 137.311 64.1653 136.068 63.6794C135.24 63.3552 134.376 62.8885 134.645 61.9918C135.095 60.4977 134.23 58.9229 134.985 57.5554C135.663 56.3287 136.981 56.5512 138.135 56.6128C141.574 56.7965 141.888 56.5321 141.277 53.0174C141.018 51.5285 141.372 50.834 142.641 49.9135C144.113 48.8454 145.52 47.6035 147.016 46.5441C149.424 44.8391 149.696 44.1766 147.977 41.587C147.439 40.7769 147.089 39.9843 146.877 39.0719C146.287 36.53 146.685 35.4363 149.079 34.3089C150.749 33.5226 152.002 32.4934 152.736 30.7739C154.013 27.7862 156.471 26.0928 159.381 24.9701C160.576 24.5092 161.823 24.1879 163.026 23.7456C165.168 22.9576 166.998 22.5932 168.941 24.6533C170.219 26.0091 172.659 25.8005 174.351 26.9C174.926 27.2743 175.82 27.3388 176.18 27.8304C177.589 29.7522 178.622 30.7471 179.422 27.4224C179.606 26.6594 180.823 26.4049 181.479 27.1883C182.477 28.379 183.375 28.1001 184.507 27.4451C186.405 26.3468 188.607 26.9035 190.652 26.5043C192.821 26.0806 191.398 25.1432 191.119 24.3349L191.157 24.2866C192.864 24.6371 194.563 25.0363 196.281 25.3176C197.19 25.4664 197.831 25.4884 198.114 24.0617C198.726 20.9649 200.114 20.3808 203.506 20.701C204.721 20.8155 205.894 20.6057 207.124 21.1503C207.834 21.4647 209.108 21.3263 209.305 20.0618C209.58 18.2981 210.479 18.5253 211.805 18.9146C213.031 19.2744 214.703 19.8898 214.686 17.4101C214.681 16.7604 215.483 16.6418 216.046 16.5186C218.519 15.9782 220.825 14.8403 223.491 14.9594C225.939 15.0687 226.6 13.4398 225.284 11.1007C226.005 10.5277 226.421 9.73562 226.808 8.92377V8.92377ZM148.36 57.2201C145.779 57.6769 144.028 59.2372 142.977 61.4857C142.463 62.5846 142.015 63.5702 140.88 64.1112C140.501 64.2914 139.733 64.1879 139.826 64.6831C139.898 65.0689 140.673 64.9882 141.088 64.8429C143.169 64.1159 145.239 63.4354 147.469 63.2413C148.687 63.1349 149.781 63.3104 150.843 63.7974C151.886 64.2763 151.752 65.2654 151.81 66.2045C151.855 66.9344 152.425 67.5428 153.154 67.5806C155.489 67.7009 157.715 69.6855 160.189 67.956C160.57 67.6893 161.4 67.7445 161.865 67.9729C164.438 69.2392 167.191 68.3605 169.835 68.7249C171.131 68.9033 171.591 67.6323 171.839 66.6897C172.143 65.5367 171.209 65.5135 170.313 65.4513C169.537 65.3973 168.733 64.7464 168.028 64.8673C165.599 65.2834 164.53 64.2728 164.376 61.9366C164.346 61.4647 164.06 61.0149 163.475 61.0957C163.081 61.1503 163.115 61.5833 162.966 61.8704C162.106 63.5289 159.88 63.8137 158.816 62.4027C158.493 61.975 158.464 60.84 157.995 61.076C155.578 62.2917 154.509 60.0421 152.898 59.2611C151.841 58.7479 151.183 58.5596 151.077 60.0985C151.021 60.9173 150.564 61.9511 149.642 61.6792C148.319 61.2886 149.493 60.3687 149.55 59.6743C149.638 58.6334 150.389 57.248 148.36 57.2201V57.2201ZM157.584 44.4712C159.195 44.5555 159.062 44.4706 159.716 43.4368C161.253 41.0082 160.644 38.6076 159.842 36.1889C159.616 35.5084 159.706 34.2514 158.462 34.6959C157.514 35.0347 156.921 36.1401 157.535 36.9763C159.61 39.8053 156.88 41.1709 155.763 42.8818C155.065 43.9517 153.662 45.0366 152.477 43.016C152.303 42.7202 151.904 42.4808 151.623 42.7598C151.422 42.9597 151.342 43.4147 151.398 43.721C151.768 45.7282 153.346 45.3005 154.694 45.304C155.735 45.3069 156.394 43.9633 157.584 44.4712V44.4712ZM176.756 58.5933C176.264 56.6727 173.546 56.8389 173.144 54.6352C173.052 54.1326 172.367 55.407 171.879 55.7766C171.107 56.3618 170.327 56.5367 169.849 55.5744C169.457 54.7869 169.036 54.3139 168.356 55.0327C167.578 55.8545 166.656 56.7029 166.806 58.0296C166.901 58.8729 167.548 59.3541 168.259 59.1989C170.49 58.7119 172.557 59.0245 174.663 59.8556C175.546 60.2031 176.512 59.7858 176.756 58.5933ZM174.556 76.8241C173.826 76.9822 173.798 77.5139 173.76 78.0956C173.647 79.7914 174.864 80.7776 175.758 81.9323C176.164 82.4559 176.581 83.3921 177.252 83.1056C178.22 82.6918 177.61 81.7388 177.427 81.0193C177.08 79.6525 176.074 78.653 175.37 77.486C175.209 77.2176 174.86 77.063 174.556 76.8241ZM0 46.8457C2.91594 45.0535 5.86841 43.3397 9.13225 42.2356C9.54856 42.0949 10.1272 41.8363 10.082 41.3319C10.0298 40.7479 9.32649 41.0018 8.95772 40.7845C7.45539 39.8988 5.89798 39.0905 4.47393 38.0915C2.71474 36.8572 2.7965 35.8355 4.60787 34.7296C4.99867 34.4908 5.45847 34.367 5.88407 34.1834C6.3717 33.9724 7.36436 34.1177 7.16954 33.3965C6.99849 32.7631 6.15021 33.3616 5.60459 33.3308C5.14595 33.3053 4.6531 33.3314 4.23968 33.1693C3.44242 32.8566 2.73909 32.261 2.88173 31.3521C3.06322 30.195 4.08835 30.1056 5.04912 30.0945C5.47703 30.0893 6.09048 30.592 6.28067 30.055C6.45751 29.5564 5.72461 29.4768 5.35527 29.2367C2.59588 27.441 2.60631 27.0017 5.386 25.3844C6.08932 24.9753 6.74801 24.4726 7.48612 24.1454C9.58451 23.2156 11.5565 22.6525 14.0329 23.5254C16.7169 24.4715 19.7355 24.4162 22.5668 25.0014C26.0794 25.7273 29.4145 25.7441 32.9967 24.8318C36.4374 23.9554 40.1256 24.6074 43.5768 25.8238C43.9913 25.9696 44.523 26.3369 44.8454 25.8545C45.1371 25.4181 44.7811 24.9445 44.3908 24.6812C43.8081 24.289 43.2753 23.9595 43.1274 23.1459C42.9598 22.2242 42.416 22.0185 41.7068 22.7827C40.8661 23.6887 39.8543 23.6724 38.8222 23.222C37.7658 22.7612 36.9581 22.0847 37.6892 20.8074C38.0986 20.092 38.5468 19.4388 38.4975 18.5561C38.4279 17.3177 39.5081 17.0451 40.1239 17.4415C42.1052 18.7153 44.5891 18.0092 46.6017 19.5678C48.2565 20.8498 50.5416 21.2258 52.7247 19.8921C53.9846 19.1227 55.3142 18.9524 55.0388 21.2229C54.9321 22.1045 55.2272 23.0668 55.8789 23.4126C57.6683 24.3616 59.1694 25.0933 56.6223 26.95C56.0882 27.3393 56.4854 28.0727 57.1499 28.2616C57.9419 28.4865 59.0778 28.6428 59.1688 27.6305C59.2755 26.4444 59.6861 25.8005 60.6097 25.1165C62.1167 24.0007 61.8633 23.3196 59.9278 23.2993C58.3554 23.2824 57.8167 21.6495 56.6333 20.9992C58.0115 20.7504 58.5531 19.0936 60.0392 18.9914C60.848 18.9356 61.6493 18.7601 62.4524 18.6276C63.5981 18.4387 64.3826 17.8669 64.5514 16.6337C64.6372 16.0084 64.592 15.4319 63.855 15.2849C62.8038 15.0757 61.8795 14.4492 60.9309 15.9747C59.5915 18.1278 56.9377 16.3257 55.0828 17.3119L54.6021 16.0363C54.8926 15.7271 54.9251 15.4185 54.601 15.11C54.8393 13.8698 53.9411 12.7517 54.5413 11.3611C55.5478 9.02838 55.8006 8.79011 57.83 10.0791C58.4354 10.4638 59.21 10.8973 58.9734 11.6441C58.6563 12.6425 57.8126 11.7963 57.2096 11.837C56.4611 11.8876 55.7403 11.955 55.7322 12.8964C55.7241 13.8227 56.4066 13.9872 57.1789 13.9825C57.9924 13.9779 58.8082 14.0581 59.6188 14.0145C61.1142 13.9343 61.988 13.4258 60.786 11.8736C60.263 11.1978 59.5915 10.4516 60.4537 9.76932C61.3513 9.0586 61.974 10.0913 62.4089 10.641C62.8432 11.1902 64.3664 11.1896 63.4648 12.6988C63.1917 13.1562 64.6372 13.4682 65.3753 13.6507C65.7284 13.7379 66.0757 13.5217 66.1639 13.1271C66.3424 12.3257 65.9615 11.7917 65.2785 11.4285C65.1706 11.373 65.0669 11.3097 64.9683 11.239C60.6544 8.06137 60.706 7.06472 65.3382 4.33223C66.1395 3.85823 67.0079 3.50868 67.9138 3.29548C72.6556 2.16227 77.5151 1.8351 82.3276 1.27081C84.3391 1.03487 86.4699 1.72526 88.5329 2.07684C89.3169 2.21051 90.687 2.53478 90.7061 2.84104C90.7624 3.73134 89.5285 3.69879 88.9771 4.26714C88.664 4.59025 88.0801 4.82038 88.3915 5.36316C88.7469 5.98207 89.5337 6.01171 89.8735 5.55494C91.8977 2.83697 94.7208 3.52445 97.4976 3.35127C99.7572 3.21063 102.039 2.91251 104.362 2.11171C106.919 1.22955 109.968 0.973852 112.842 0.743142C113.417 0.697232 114.158 1.02499 114.56 0.76813C118.036 -1.44716 120.942 1.84962 124.186 1.69272C124.573 1.67412 124.871 2.00187 124.747 2.39065C124.654 2.68122 124.354 3.09848 124.118 3.11766C122.497 3.25074 120.867 3.28561 119.242 3.37336C118.906 3.39137 118.576 3.50179 118.243 3.56978C118.44 4.13987 118.946 3.9452 119.313 3.94461C122.786 3.93648 126.252 4.42812 129.735 4.0097C130.581 3.908 131.808 3.78712 131.974 5.06271C132.105 6.06633 131.041 6.25636 130.348 6.63701C127.86 8.00616 125.085 9.21027 126.991 12.947C127.229 13.4136 126.611 13.8448 126.621 14.2074C126.715 17.4298 123.905 19.9485 124.505 23.308C124.673 24.2529 124.081 25.2385 123.123 25.5349C121.029 26.1823 119.401 28.0321 117.009 27.8827C116.783 27.8688 116.503 27.8845 116.328 28.0047C112.905 30.3514 108.346 31.4648 107.2 36.3051C106.764 38.1432 105.691 38.3728 104.053 37.9032C101.458 37.1594 100.175 35.1806 98.8712 33.0443C97.5208 30.8308 96.9352 28.827 99.0034 26.7483C99.3264 26.4241 99.3038 26.0173 98.8521 25.5936C97.8206 24.6266 95.9976 21.4583 95.7239 20.4047C94.8849 17.1724 91.6738 14.5335 88.4923 15.3854C84.9769 16.3268 83.7117 13.9814 81.9461 12.1252C81.2283 11.3709 81.8574 10.8433 82.5062 10.5184C83.4345 10.0529 84.5281 10.0558 85.4274 9.41251C86.1562 8.89123 86.2055 8.44608 85.8338 7.67898C85.4419 6.86946 84.9618 7.15422 84.4307 7.3675C81.2712 8.63553 78.4672 10.1889 77.4299 13.8727C77.0825 15.1076 76.1096 16.1153 75.7907 17.5298C75.5164 18.7467 73.8535 18.4695 72.7321 18.652C72.3233 18.7188 71.6154 18.3312 71.5794 18.8984C71.5528 19.3191 72.4022 19.118 72.7663 19.3278C75.2862 20.7772 78.4115 19.895 80.9268 21.7204C82.9295 23.1738 85.2894 23.9356 86.2641 26.6681C86.7395 28.0018 88.5828 28.4842 89.9709 29.0688C90.6197 29.3419 91.5608 29.5529 90.8522 30.3938C90.2973 31.0522 90.0341 32.6312 88.5497 31.8466C88.0499 31.5822 87.6777 31.0795 87.2364 30.6983C86.9802 30.4769 86.6328 30.1811 86.3482 30.431C86.0339 30.7064 86.34 31.0493 86.5586 31.2986C86.8659 31.6496 87.2417 31.9466 87.5142 32.3202C88.0117 33.0025 89.3151 33.6406 88.2952 34.5803C87.5258 35.2899 86.5569 36.4318 85.254 35.8193C82.6871 34.6134 80.3875 32.6713 77.2432 33.2315C76.9451 33.2844 76.6523 32.8886 76.6471 32.508C76.6407 32.082 76.9434 31.9076 77.322 31.8774C77.9013 31.8309 78.5141 31.9158 79.0557 31.7542C80.5424 31.3102 81.4556 29.4686 80.9262 28.1413C80.311 26.5996 76.5839 24.8068 74.8195 25.0096C73.5688 25.1537 74.3852 25.6471 74.3005 26.18C74.0622 27.6816 75.2561 30.0614 72.0671 30.1898C70.9347 30.2357 71.8311 31.1708 72.2874 31.5944C73.1165 32.3644 75.0561 32.4859 74.8288 33.6075C74.6125 34.6768 72.7217 33.1222 71.7632 34.2113C71.3643 34.6646 70.6204 34.7116 70.1438 34.3217C68.2733 32.7921 67.1438 34.3798 65.9493 35.3282C62.3962 38.1502 62.5428 39.71 66.6677 41.7021C67.6007 42.1525 68.4605 42.8301 69.459 43.0736C72.0601 43.7088 74.2762 44.6804 74.9297 47.6628C75.045 48.1881 75.6921 49.14 76.4743 48.4043C76.9045 47.9993 76.9074 47.324 76.5752 46.8353C75.5565 45.3359 75.7489 44.341 77.4965 43.5745C78.2764 43.2328 78.0393 42.3326 77.7128 41.7079C77.1324 40.5979 77.3551 39.4269 77.3017 38.2746C77.166 35.3195 78.822 34.238 81.477 35.642C82.4865 36.1761 83.6479 36.8025 84.2132 37.7143C85.1618 39.2445 85.9075 40.0377 87.7432 38.8969C88.9365 38.1554 89.7854 39.2939 90.1709 40.2202C91.0146 42.2466 92.5575 43.5518 94.1277 44.9506C95.3233 46.0159 97.2152 46.9724 96.0892 49.2522C95.7251 49.9885 96.5473 50.1512 96.9978 50.4557C97.7806 50.9851 98.5129 51.5715 98.6868 52.5815C98.7669 53.0458 98.4671 53.8647 98.4103 53.8205C97.1288 52.8262 95.5987 53.7728 94.3381 53.2661C93.4881 52.9244 93.4406 52.0213 93.7589 51.1403C94.2477 49.7868 93.5397 49.8217 92.5331 50.0716C91.864 50.2378 91.1265 50.3441 90.4545 50.2424C88.032 49.8769 88.1682 50.7021 88.9046 52.6385C89.5581 54.3569 90.2272 54.2226 91.446 53.5328C92.0159 53.2103 92.6161 53.2829 92.8828 53.953C93.1362 54.5893 92.7407 55.3338 92.2566 55.4122C90.44 55.7074 88.9568 57.9012 86.7987 56.3589C86.1493 55.8951 85.058 56.2473 84.9467 56.7651C84.506 58.82 82.7782 59.361 81.353 60.3042C81.0839 60.482 80.8874 60.8464 80.7697 61.166C79.7208 64.0008 78.2219 66.427 75.7368 68.3326C74.4739 69.3008 74.3922 70.9843 75.6881 72.3761C76.3241 73.0589 76.5039 74.0015 75.6469 74.4932C74.798 74.9796 74.6786 73.7586 74.1689 73.3809C73.6256 72.9782 73.1664 72.3936 72.822 71.8002C71.8067 70.0522 70.2476 69.8639 68.5869 70.3974C67.5705 70.724 66.5889 70.9709 65.5295 70.9715C63.4445 70.9727 61.5832 70.8692 62.0668 74.1399C62.2471 75.3597 60.5065 76.73 62.0987 78.2874C63.2584 79.4212 64.3061 79.9593 65.769 79.0441C66.2624 78.7355 66.724 78.3734 67.2232 78.0741C67.9503 77.6377 68.8548 77.303 69.5483 77.7336C70.6123 78.3949 69.5703 79.2265 69.2891 79.8001C68.3846 81.6487 68.5626 82.6064 70.8778 82.5872C72.1129 82.5774 72.8023 83.4049 72.8307 84.6218C72.8574 85.762 72.3749 87.1956 73.8297 87.6361C75.3471 88.0952 77.2733 88.251 78.4573 87.3026C81.0062 85.261 83.5174 85.6934 86.2577 86.5541C86.9947 86.7854 87.76 86.8946 88.5306 86.9452C92.9756 87.2392 95.4218 91.4466 99.5026 92.4404C100.894 97.2673 105.867 96.5211 109.069 98.5254C109.899 99.045 110.965 99.3117 111.862 99.8667C113.593 100.938 114.07 102.314 112.757 103.929C111.444 105.543 111.104 107.435 110.545 109.348C109.626 112.491 109.06 116.122 104.551 116.408C103.336 116.485 102.704 117.631 102.345 118.855C100.902 123.764 100.381 124.282 95.089 126.331C94.6785 126.49 94.5596 126.653 94.6942 127.031C95.5256 129.363 93.9317 129.999 92.245 130.157C90.6684 130.305 90.5878 131.619 89.9622 132.474C88.8373 134.012 88.5753 136.107 86.8984 137.329C86.794 137.405 86.9112 138.081 87.1112 138.235C88.1955 139.069 87.7148 139.606 87.0254 140.475C84.7386 143.357 84.7797 143.515 86.8335 146.514C87.1617 146.993 87.796 147.349 86.7656 147.697C83.9801 148.636 81.3651 147.338 80.3099 144.558C79.4865 142.391 79.4378 140.022 80.013 137.996C81.2138 133.764 81.0387 129.366 82.0592 125.075C82.8402 121.79 83.4705 118.135 83.5227 114.559C83.5557 112.321 82.6651 110.598 80.8966 109.55C78.9391 108.39 77.8421 106.761 77.1046 104.73C76.9086 104.191 76.5566 103.71 76.3091 103.187C75.6556 101.807 73.0591 101.35 74.5493 98.9067C75.3552 97.5852 75.001 95.6622 76.4859 94.5697C77.442 93.8665 77.4907 92.8437 77.5458 91.7564C77.605 90.5947 77.3255 90.1158 76.0505 89.9915C73.7445 89.7671 71.3272 89.5178 70.759 86.4983C70.6355 85.8422 69.8515 85.7701 69.3326 85.6649C66.6538 85.1192 64.5409 83.3369 61.4447 83.2236C58.8314 83.1283 55.3095 81.7992 53.9835 78.3107C53.3978 76.7701 52.7426 75.6502 50.3196 76.1419C48.3377 76.544 47.0517 74.0457 46.3791 72.2355C45.3302 69.4141 43.8348 67.2476 41.4129 65.3049C38.7949 63.2052 38.076 59.7556 38.1421 56.4031C38.1873 54.1122 38.3607 51.944 35.9022 50.6975C35.3786 50.4319 35.1641 50.0048 35.0916 49.319C34.8034 46.5993 34.5808 46.4471 31.699 46.2175C30.7719 46.1437 30.8084 45.3545 30.4675 44.7792C28.3714 41.2447 25.7094 38.6279 21.2616 38.1461C19.6497 37.9712 18.6599 38.8046 17.3733 39.0539C16.0078 39.3183 14.3826 38.6802 15.2801 41.2238C15.5451 41.9758 14.3698 43.1142 13.4085 42.8028C11.651 42.2327 10.8137 43.1764 9.91269 44.2957C9.69816 44.5624 9.42448 44.9733 9.1653 44.9832C5.9809 45.1046 3.34849 47.2211 0.204098 47.4518L0 46.8457V46.8457ZM66.1981 20.7551C65.6269 20.8516 65.0564 20.9643 64.6604 21.4402C64.2087 21.983 64.3786 22.5525 64.756 23.007C65.9783 24.4778 66.8869 26.3003 69.0491 26.7385C69.4689 26.8233 68.9401 28.1035 69.8452 27.8798C70.287 27.7711 70.7422 27.1144 70.9022 26.6129C71.1086 25.9661 70.5212 25.5152 69.9739 25.3798C68.0982 24.916 67.436 23.5846 67.2348 21.8436C67.1658 21.2491 66.9849 20.6958 66.1981 20.7551V20.7551Z" fill="#F4FFF7" fill-opacity="0.5"/>
<path d="M260.705 106.832C260.674 105.116 260.738 103.647 258.905 103.203C258.682 103.149 258.274 103.026 258.28 102.974C258.686 99.4265 255.575 99.9987 253.769 99.0375C253.369 98.8247 253.034 98.463 252.72 98.1228C252.158 97.514 251.504 96.7663 252.153 95.9836C252.913 95.066 254.128 95.3719 254.534 96.197C255.386 97.924 256.441 97.4111 257.902 97.2814C261.136 96.9936 263.73 98.734 265.493 101.298C266.178 102.294 268.101 103.41 267.504 104.071C266.555 105.123 265.333 103.515 264.255 102.968C263.387 102.529 262.63 102.747 262.057 103.415C261.418 104.16 261.843 104.899 262.205 105.674C263.972 109.45 266.57 112.656 269.051 115.945C271.36 119.006 271.489 120.696 269.638 124.032C269.296 124.647 268.945 125.26 268.654 125.901C266.418 130.83 262.713 131.438 258.913 127.821C257.115 126.11 254.949 124.77 252.867 123.388C251.568 122.526 250.237 122.94 248.926 123.672C246.795 124.864 244.562 125.711 242.067 125.959C239.339 126.23 239.307 126.385 238.924 123.612C238.594 121.228 237.175 119.147 237.504 116.518C237.766 114.42 238.552 113.378 240.483 112.827C242.079 112.371 243.575 112.079 244.348 109.901C244.777 108.693 247.039 107.482 248.921 107.571C250.017 107.622 250.631 107.452 251.18 106.515C252.04 105.044 253.52 105.208 254.922 105.314C255.834 105.383 256.599 105.801 256.374 106.84C255.868 109.183 257.368 109.965 259.081 109.871C261.049 109.762 260.519 107.848 260.705 106.832V106.832ZM154.838 7.3435C153.717 7.62145 152.191 6.41896 151.479 8.14652C150.749 9.9206 152.782 10.3835 153.276 11.597C153.552 12.2727 154.144 12.6535 154.691 13.0902C155.677 13.8775 156.722 13.9985 157.359 12.8704C158.34 11.1318 159.406 11.1016 160.839 12.2221C161.211 12.5122 161.73 12.4494 162.123 12.1232C162.416 11.8796 162.577 11.4324 162.284 11.2126C159.198 8.89836 161.959 9.29086 163.285 8.92861C163.822 8.78149 164.311 8.4169 164.787 8.09942C165.056 7.9209 165.43 7.64412 165.443 7.397C165.461 7.02602 165 6.97368 164.679 6.95217C163.063 6.84518 161.546 6.05263 159.716 6.31662C158.061 5.96773 156.511 6.92833 154.838 7.3435V7.3435ZM52.2577 13.499C51.7166 12.8908 50.8822 12.7466 50.5494 13.5659C49.252 16.7593 47.6722 14.3392 46.6873 13.5816C44.0606 11.5621 42.9299 11.4534 40.7002 13.6223C39.7338 14.5625 39.673 15.1521 41.1197 15.4429C43.0479 15.8301 44.8604 16.3872 46.6045 17.4292C48.7173 18.6916 52.9695 17.5263 54.6616 15.5661C54.9515 15.2568 54.9839 14.948 54.6604 14.6393C53.6402 14.7242 52.9163 14.2392 52.2577 13.499V13.499ZM233.551 94.4444C233.426 94.534 233.404 94.8962 233.46 95.0963C233.908 96.679 234.382 98.267 236.262 98.7235C237.888 99.1183 239.078 98.6752 240.111 97.2012C241.406 95.3544 240.817 93.1623 241.558 91.2254C241.832 90.5102 240.919 90.131 239.719 90.1229C237.853 91.4219 235.691 92.9175 233.551 94.4444ZM183.735 106.161C182.287 107.184 180.279 107.984 179.535 109.54C178.678 111.333 178.369 113.502 178.493 115.6C178.536 116.337 178.923 116.925 179.717 117.067C180.679 117.239 181.821 117.176 182.096 116.185C182.858 113.441 184.335 110.923 184.711 108.235C184.388 107.322 184.69 105.487 183.735 106.161ZM190.951 23.8272C188.556 21.1547 188.559 20.5913 191.276 18.3252C192.879 16.9884 194.627 15.8761 196.712 15.3818C197.602 15.1707 198.471 14.83 199.306 14.4497C199.528 14.3485 199.708 13.8781 199.693 13.5885C199.665 13.0402 199.212 12.7559 198.719 12.8774C194.23 13.9805 189.738 15.0893 186.83 19.2056C185.668 20.8512 186.068 22.6404 187.846 23.5306C188.822 24.0185 189.879 23.8626 190.912 23.8748L190.951 23.8272ZM285.478 136.549C286.315 134.519 287.84 133.247 289.536 131.982C291.593 130.446 291.446 129.336 289.323 127.646C288.874 127.289 288.425 126.704 287.844 126.97C287.143 127.291 287.59 127.965 287.682 128.501C287.949 130.049 287.742 131.107 286.051 132.005C284.614 132.769 283.592 134.394 282.513 135.74C281.664 136.801 282.123 137.923 283.444 138C284.351 138.012 285.131 137.389 285.478 136.549V136.549ZM260.681 59.4605C260.215 59.1907 259.725 59.2855 259.48 59.7269C258.001 62.4051 255.532 63.7135 252.844 64.8159C251.745 65.2666 250.979 66.1958 251.036 67.5343C251.058 68.0518 251.345 68.5083 251.883 68.2676C254.341 67.1709 256.876 66.1853 259.165 64.7973C260.543 63.9623 261.009 62.2039 261.328 60.8398C261.365 60.0676 261.103 59.7042 260.681 59.4605ZM223.223 5.45836C221.558 4.36577 220.531 5.40602 219.908 6.69981C219.26 8.04534 219.733 9.23271 221.303 9.6851C222.529 10.0381 223.774 10.3207 225.011 10.6346C225.729 10.0549 226.143 9.26237 226.531 8.45005C225.766 7.07486 224.482 6.28347 223.223 5.45836ZM257.368 15.3556C256.682 16.5645 258.147 16.7489 258.666 17.3885C258.883 17.6571 259.128 17.9072 259.314 18.1962C259.835 19.0073 260.462 19.8574 261.502 19.5155C262.788 19.0928 261.199 18.1334 261.7 17.4763C261.976 17.1146 262.209 16.7169 262.503 16.3709C263.197 15.5516 262.738 15.1033 261.975 14.8922C261.318 14.7108 260.613 14.7085 260.156 14.6544C259.021 14.7521 257.871 14.4689 257.368 15.3556ZM244.302 86.2038C245.428 87.1806 246.45 86.4038 247.02 85.713C247.635 84.9658 246.956 84.0982 246.055 83.9186C244.424 83.5935 244.326 82.7922 244.892 81.4205C245.132 80.8385 244.446 80.339 243.896 80.1896C243.163 79.9895 242.9 80.6553 242.717 81.192C242.57 81.6235 242.587 82.1119 242.531 82.5748C242.417 84.1378 243.19 85.2385 244.302 86.2038V86.2038ZM241.562 97.4768C241.647 98.5142 241.794 99.9993 242.915 100.257C243.521 100.397 245.069 99.8481 244.967 98.4804C244.893 97.4791 244.658 96.3714 243.263 96.2243C242.432 96.265 241.486 96.5494 241.562 97.4768Z" fill="#F4FFF7" fill-opacity="0.5"/>
</svg>
