<svg width="29" height="25" viewBox="0 0 29 25" fill="none" xmlns="http://www.w3.org/2000/svg">
<path d="M26.1509 0L19.1645 3.22917L12.6895 0.729167L3.83587 1.25L0.993408 23.4375L10.1471 22.7429L20.3069 25L28.9934 22.1875L26.1509 0ZM25.3777 1.29542L27.9826 21.6283L20.4861 24.0554L20.4445 23.2746L27.0577 21.0454L24.7981 2.465L19.4571 4.72667L19.4207 4.04917L19.5938 3.96958L25.3777 1.29542V1.29542ZM19.9471 13.9371C20.0507 13.7404 20.1524 13.4642 20.2009 13.0767C20.2009 13.0767 20.7152 13.0992 21.348 14.3304C21.348 14.3304 21.6243 14.3058 21.4866 13.5021C21.4866 13.5021 22.4745 13.1467 21.9416 11.5837C21.9416 11.5837 22.7704 12.6029 22.4951 11.2779C22.4951 11.2779 23.4041 10.2829 22.3182 9.62125C22.3182 9.62125 22.3555 8.8875 23.0084 8.98167C23.0084 8.98167 23.6608 7.46667 23.3463 9.26542C23.3463 9.26542 23.3649 9.62125 23.7798 10.0225C23.7798 10.0225 23.9585 9.43125 23.6417 8.79375C23.6417 8.79375 24.2945 7.70292 24.2348 6.7575C24.2348 6.7575 22.1199 7.45792 19.7665 7.24875C19.7665 7.24875 19.8813 6.85792 19.5597 6.63833L19.4939 5.40292L19.5499 5.37917L24.2091 3.40667L26.3035 20.6321L20.41 22.6192L19.9471 13.9371V13.9371ZM19.0893 6.60625C18.8462 6.91583 18.1714 7.86792 18.5816 8.43792C18.5816 8.43792 18.3828 9.6725 18.1056 7.87167C18.1056 7.87167 17.6525 8.93458 17.0393 8.6975C17.0393 8.6975 16.8708 9.77333 16.4849 9.0525C16.4849 9.0525 16.8008 9.17125 16.8703 8.84C16.8703 8.84 15.9795 7.98792 15.447 9.27625C15.447 9.27625 15.0121 9.43083 15.1805 10.035C15.1805 10.035 15.4857 9.53667 15.6444 10.2954C15.6444 10.2954 15.8129 10.1771 15.8833 9.20583C15.8833 9.20583 16.3061 9.0175 15.9795 9.785C15.9795 9.785 16.9483 9.79875 15.447 10.5658C15.447 10.5658 15.3639 10.5533 15.2986 10.2592C15.2986 10.2592 15.0713 10.9675 14.6056 11.2187C14.6056 11.2187 14.7148 11.5017 14.3695 11.6317C14.3695 11.6317 14.1823 12.07 14.6275 12.07C14.6275 12.07 15.0125 11.0167 15.7443 11.8454C15.7443 11.8454 15.8838 11.7983 15.6659 11.3837C15.6659 11.3837 16.0504 11.5154 16.1993 12.0583C16.1993 12.0583 16.4368 12.0217 16.4746 11.5496C16.4746 11.5496 16.7728 10.9462 17.2577 11.6567C17.2577 11.6567 16.6141 11.4904 16.4471 12.07C16.4471 12.07 16.7513 11.9513 16.9408 12.1175C16.9408 12.1175 16.9599 12.3879 16.7658 12.4925C16.8498 12.6333 16.9408 12.7683 17.0677 12.8825C17.1031 12.9119 17.126 12.9513 17.1326 12.9941C17.1391 13.0368 17.1289 13.0803 17.1037 13.1171C17.4462 13.6404 18.079 14.3371 18.5219 13.225C18.5219 13.225 17.9292 13.5254 17.7309 12.6967C17.7309 12.6967 18.9269 12.8325 19.4785 13.9037L19.9429 22.6321L10.6413 20.3029L10.7808 19.0708C10.974 19.5129 11.2003 19.6925 11.2003 19.6925C10.9376 17.7696 12.4916 16.5375 12.4916 16.5375C12.7935 15.2175 12.0259 14.625 11.3142 14.3583L11.6796 11.13C11.8261 10.9671 11.9125 10.8583 11.9125 10.8583C11.8597 10.6962 11.8084 10.5542 11.7594 10.4242L12.1136 7.29167C12.4113 7.61542 12.4454 7.90958 12.3619 8.17708C11.9787 9.4075 12.4715 9.78458 12.4715 9.78458C12.7707 8.74542 13.7973 8.57958 13.7973 8.57958C13.7385 7.60792 14.3704 6.50333 14.3704 6.50333C13.683 5.44875 12.6997 6.16 12.1845 6.66333L12.2247 6.30958C12.3301 6.18833 12.4403 6.05625 12.5593 5.90542C12.5593 5.90542 12.4608 5.845 12.2821 5.80083L12.5957 3.02792L18.9815 5.39125L19.0263 5.40792L19.0893 6.60625V6.60625ZM11.8177 5.75833C11.4995 5.77167 11.0921 5.86958 10.6128 6.16542C10.6128 6.16542 10.3851 8.03292 11.6927 6.8625L11.5466 8.15458C11.3758 7.64458 10.9707 7.46708 10.9707 7.46708C10.5741 7.68125 10.6137 7.96458 10.6137 7.96458C10.9735 8.01292 11.1933 8.39958 11.3226 8.76208C11.2498 8.86167 11.1252 8.97542 10.9101 8.99417C10.9101 8.99417 11.1607 9.33042 11.4033 9.42458L11.3767 9.65625C10.8121 8.90083 10.5675 10.4187 10.5675 10.4187C9.17174 9.03 10.9381 8.335 10.9381 8.335C9.85681 7.92708 9.35607 6.75792 9.35607 6.75792C9.30334 7.48417 8.98648 7.45208 8.98648 7.45208C6.50848 6.15875 6.06234 8.24167 6.06234 8.24167C6.45574 9.345 5.61247 9.47125 5.61247 9.47125C6.42914 9.59708 6.85054 8.5875 6.85054 8.5875C8.53894 9.345 7.64247 12.0587 7.64247 12.0587C8.30094 12.4046 8.48574 13.5417 8.48574 13.5417C8.94448 13.6658 9.41441 13.9167 9.74387 14.1154C9.80781 14.0642 9.87361 14.0154 9.94267 13.97C9.17267 13.4842 9.17127 12.6975 9.17127 12.6975C9.86987 12.6975 10.6128 12.16 11.149 11.6658L10.8597 14.2254C10.7294 14.1962 10.5975 14.1735 10.4644 14.1575C10.34 14.2108 10.2231 14.2771 10.1163 14.355L10.1732 14.3946C9.39667 15.7267 10.4467 16.2608 10.6207 16.3379L10.1751 20.2754L3.99827 20.7067L6.05861 3.28417L12.1337 2.965L11.8177 5.75833V5.75833ZM10.5699 20.9346L19.9774 23.2904L20.0194 24.0775L10.4546 21.9525L10.5699 20.9346ZM18.9535 4.05583L18.989 4.71833L12.6694 2.37958L12.7506 1.66042L18.7939 3.99417L18.9535 4.05583V4.05583ZM4.67494 2.03583L12.2895 1.58792L12.2051 2.33542L5.42488 2.69125L3.21427 21.3887L10.1046 20.9067L9.98981 21.9183L2.05041 22.5212L4.67494 2.03583Z" fill="#BA8924"/>
<path d="M15.2919 14.2194C15.2919 14.2194 16.2324 14.3766 15.8561 15.9957C15.8561 15.9957 16.0064 17.2576 16.8312 17.1424C16.8312 17.1424 17.0563 15.3214 18.1081 13.9264C18.1081 13.9264 17.6817 14.3058 17.1982 13.0478C17.125 13.0953 17.0258 13.1064 16.9429 13.0328C16.7346 12.8471 16.6087 12.613 16.4731 12.3778C16.4538 12.344 16.446 12.3059 16.4505 12.2682C15.7662 12.0401 14.3803 11.8112 14.1839 13.6116C14.1844 13.6116 14.4463 14.851 15.2919 14.2194V14.2194ZM14.8611 10.0136C14.9259 10.8245 15.0473 11.0708 15.2064 10.7338C15.3664 10.3997 14.8611 10.0136 14.8611 10.0136ZM14.577 10.779C14.577 10.779 14.8416 10.7441 14.7659 10.4468C14.7659 10.4468 14.577 10.4642 14.577 10.779ZM14.4751 9.14883C14.4751 9.14883 13.8081 9.14883 14.0439 9.45332C14.2783 9.75701 14.4751 9.14883 14.4751 9.14883ZM17.8085 16.5362C17.8085 16.5362 18.0123 16.1648 18.0057 15.5922C18.0061 15.5922 17.3573 16.2543 17.8085 16.5362ZM22.0127 14.2087C22.0127 14.2087 21.5429 14.5916 21.6289 14.9405C21.7136 15.2905 22.1257 14.8716 22.0127 14.2087ZM23.8915 15.4469C24.0976 15.1246 22.7626 14.7255 22.7626 14.7255C23.0263 15.0747 23.7044 15.7344 23.8915 15.4469ZM22.3983 15.5158C22.7117 15.0367 21.4498 15.2659 21.4498 15.2659C21.4498 15.2659 22.2764 15.7051 22.3983 15.5158ZM22.8943 15.6156C22.8943 15.6156 22.6416 16.1204 21.7029 16.3331C21.7029 16.3331 21.901 16.7389 21.7029 17.5043C21.7029 17.5043 22.6505 16.4241 23.1965 17.9866C23.1965 17.9866 23.665 18.2138 23.9934 16.7991C23.9934 16.7991 23.5994 16.2895 23.4682 15.5649C23.4687 15.5645 23.3383 16.493 22.8943 15.6156V15.6156ZM23.0795 11.0094C23.1393 10.9647 23.1859 10.9484 23.1859 10.9484C22.7263 10.2844 22.8943 11.2415 22.8943 11.2415C22.924 11.1785 22.959 11.1302 22.9949 11.0894C23.0192 11.3729 22.943 11.7954 22.4475 12.1969C22.4471 12.1969 23.5099 11.839 23.0795 11.0094ZM14.9684 6.0382C15.2002 5.55275 14.4716 5 14.4716 5C14.5651 6.16688 14.7384 6.52324 14.9684 6.0382ZM14.0625 6.10194C14.0625 6.10194 14.4397 6.05205 14.3328 5.62521C14.3328 5.62521 14.0625 5.64937 14.0625 6.10194Z" fill="#BA8924"/>
</svg>
