<svg width="33" height="32" viewBox="0 0 33 32" fill="none" xmlns="http://www.w3.org/2000/svg">
<path d="M17.0346 15C19.2614 15 20.9934 13.1856 20.9934 10.9588C20.9934 8.73196 19.179 7 16.9522 7C14.7254 7 12.9934 8.81443 12.9934 10.9588C12.9934 13.1856 14.8078 15 17.0346 15ZM16.9522 8.64949C17.0346 8.64949 17.0346 8.64949 16.9522 8.64949C18.2718 8.64949 19.3439 9.72165 19.3439 11.0412C19.3439 12.3608 18.2718 13.3505 16.9522 13.3505C15.6326 13.3505 14.6429 12.2784 14.6429 11.0412C14.6429 9.72165 15.7151 8.64949 16.9522 8.64949Z" fill="#BA8924"/>
<path d="M29.7267 15.0882C28.0379 13.6725 25.8156 12.923 23.5045 13.0063H22.7934C22.6156 13.6725 22.349 14.2554 21.9934 14.755C22.5267 14.6718 22.9712 14.6718 23.5045 14.6718C25.1934 14.5885 26.8823 15.0881 28.2156 16.0042V22H29.9934V15.338L29.7267 15.0882Z" fill="#BA8924"/>
<path d="M22.1885 7.14607C22.6154 6.06742 23.8105 5.52809 24.9202 5.97753C25.9446 6.42697 26.4568 7.68539 26.03 8.85393C25.6885 9.66292 24.9202 10.2022 24.1519 10.2022C23.9812 10.2022 23.7251 10.2022 23.5544 10.1124C23.6397 10.5618 23.6397 11.0112 23.6397 11.3708V11.9101C23.8105 11.9101 23.9812 12 24.1519 12C26.2861 12 27.9934 10.2022 27.9934 8.04494C27.9934 5.79775 26.2861 4 24.2373 4C22.8715 4 21.6763 4.7191 20.9934 5.97753C21.4202 6.24719 21.8471 6.60674 22.1885 7.14607Z" fill="#BA8924"/>
<path d="M11.9934 14.7714C11.6379 14.2671 11.3712 13.6788 11.1934 13.0063H10.4823C8.17119 12.9223 5.94896 13.6788 4.26007 15.0236L3.99341 15.2758V22H5.77119V15.9482C7.19341 15.0236 8.79341 14.5193 10.4823 14.6033C11.0156 14.6033 11.549 14.6874 11.9934 14.7714Z" fill="#BA8924"/>
<path d="M10.3112 12C10.505 12 10.6988 12 10.8926 11.9097V11.3677C10.8926 10.916 10.8926 10.4643 10.9895 10.103C10.7957 10.1933 10.505 10.1933 10.3112 10.1933C9.05156 10.1933 7.98567 9.19964 7.98567 8.0253C7.98567 6.85096 9.05156 5.85729 10.3112 5.85729C11.2802 5.85729 12.1523 6.39929 12.5399 7.2123C12.9275 6.76063 13.5089 6.30896 13.9934 5.94762C12.7337 4.0506 10.1174 3.41827 8.08257 4.59261C6.04769 5.76695 5.3694 8.20597 6.62908 10.103C7.40428 11.2773 8.76086 12 10.3112 12Z" fill="#BA8924"/>
<path d="M23.907 20.134L23.7341 19.8803C22.0058 18.0195 19.586 16.92 16.9934 17.0046C14.4008 16.92 11.8946 18.0195 10.1662 19.8803L9.99341 20.134V26.5621C9.99341 27.3234 10.5983 28 11.4625 28H22.5243C23.302 28 23.9934 27.3234 23.9934 26.5621V20.134H23.907ZM22.1786 26.3084H11.7218V20.7261C13.1045 19.3728 15.0058 18.6962 16.9934 18.6962C18.8946 18.6116 20.7959 19.3728 22.1786 20.7261V26.3084Z" fill="#BA8924"/>
</svg>
