<svg width="26" height="25" viewBox="0 0 26 25" fill="none" xmlns="http://www.w3.org/2000/svg">
<path d="M21.979 9.11818C21.2426 9.10083 20.5178 8.93589 19.8491 8.63354C19.1805 8.33119 18.5822 7.89786 18.0914 7.36032C18.3549 8.45744 18.2018 9.6109 17.6608 10.6058C17.1199 11.6007 16.2278 12.3691 15.1509 12.7679C14.0739 13.1667 12.8856 13.1687 11.8073 12.7735C10.729 12.3783 9.83421 11.6129 9.28973 10.6198C8.74525 9.62677 8.58818 8.47383 8.8478 7.37583C9.10741 6.27783 9.76599 5.30965 10.7008 4.6517C11.6357 3.99375 12.783 3.6909 13.9291 3.79957C15.0752 3.90825 16.1418 4.42104 16.9302 5.24241C16.6116 4.11109 16.6903 2.90781 17.1538 1.82552C15.8624 1.21507 14.4339 0.935351 13.002 1.01256C11.5701 1.08977 10.1816 1.52137 8.9666 2.26697C7.75156 3.01257 6.74969 4.04777 6.0548 5.27565C5.3599 6.50353 4.99471 7.88393 4.99341 9.28761C4.99341 12.5845 6.8831 15.3448 8.26791 17.3568L8.52035 17.7239C9.89815 19.6785 11.3762 21.5635 12.9489 23.3717L13.497 24L14.0452 23.3717C15.6176 21.5633 17.0957 19.6784 18.4737 17.7239L18.7261 17.3498C20.1037 15.3378 21.9934 12.5845 21.9934 9.28761C21.9862 9.23113 21.979 9.17466 21.979 9.11818Z" fill="#BA8924"/>
<path d="M13.4934 11C14.8741 11 15.9934 9.88071 15.9934 8.5C15.9934 7.11929 14.8741 6 13.4934 6C12.1127 6 10.9934 7.11929 10.9934 8.5C10.9934 9.88071 12.1127 11 13.4934 11Z" fill="#BA8924"/>
<path d="M21.4934 8C23.4264 8 24.9934 6.433 24.9934 4.5C24.9934 2.567 23.4264 1 21.4934 1C19.5604 1 17.9934 2.567 17.9934 4.5C17.9934 6.433 19.5604 8 21.4934 8Z" fill="#BA8924"/>
</svg>
